<svg width="17" height="16" viewBox="0 0 17 16" fill="none" xmlns="http://www.w3.org/2000/svg">
<g clip-path="url(#clip0_4228_706)">
<path d="M8.81992 7.28V9.46667H14.0466C13.8866 10.6933 13.4779 11.5913 12.8553 12.222C12.0906 12.9867 10.8999 13.822 8.81992 13.822C5.60192 13.822 3.08659 11.2267 3.08659 8.00867C3.08659 4.79067 5.60192 2.19533 8.81992 2.19533C10.5533 2.19533 11.8246 2.88 12.7579 3.76L14.2959 2.222C12.9979 0.96 11.2553 0 8.81992 0C4.41126 0 0.70459 3.59133 0.70459 8C0.70459 12.4087 4.41126 16 8.81992 16C11.2019 16 12.9979 15.218 14.4019 13.76C15.8419 12.32 16.2953 10.2847 16.2953 8.64867C16.2953 8.142 16.2599 7.67067 16.1799 7.28H8.81992Z" fill="#09090B"/>
</g>
<defs>
<clipPath id="clip0_4228_706">
<rect width="16" height="16" fill="transparent" transform="translate(0.5)"/>
</clipPath>
</defs>
</svg>
