<svg width="201" height="200" viewBox="0 0 201 200" fill="none" xmlns="http://www.w3.org/2000/svg">
<path d="M12.334 0.5H188.334C194.685 0.5 199.834 5.64873 199.834 12V188C199.834 194.351 194.685 199.5 188.334 199.5H12.334C5.98271 199.5 0.833984 194.351 0.833984 188V12C0.833984 5.64873 5.98271 0.5 12.334 0.5Z" stroke="#F4F4F5"/>
<path d="M142.001 166.667C142.001 152.86 123.346 141.667 100.334 141.667C77.3221 141.667 58.6673 152.86 58.6673 166.667M175.334 141.67C175.334 131.418 165.05 122.608 150.334 118.75M25.334 141.67C25.334 131.418 35.6181 122.608 50.334 118.75M150.334 85.3009C155.449 80.7232 158.667 74.0708 158.667 66.6667C158.667 52.8596 147.474 41.6667 133.667 41.6667C127.264 41.6667 121.424 44.0738 117.001 48.0324M50.334 85.3009C45.2194 80.7232 42.0007 74.0708 42.0007 66.6667C42.0007 52.8596 53.1935 41.6667 67.0006 41.6667C73.4036 41.6667 79.2443 44.0738 83.6673 48.0324M100.334 116.667C86.5269 116.667 75.334 105.474 75.334 91.6667C75.334 77.8595 86.5269 66.6667 100.334 66.6667C114.141 66.6667 125.334 77.8595 125.334 91.6667C125.334 105.474 114.141 116.667 100.334 116.667Z" stroke="white" stroke-width="2" stroke-linecap="round" stroke-linejoin="round"/>
</svg>
